<?xml version="1.0" encoding="UTF-8"?>
<svg version="1.1" xmlns="http://www.w3.org/2000/svg" width="591" height="107">
<path d="M0 0 C5.94 0 11.88 0 18 0 C20.8458707 6.96003559 23.42414704 13.95594319 25.8203125 21.08203125 C26.16504608 22.09923752 26.50977966 23.11644379 26.86495972 24.16447449 C27.95421936 27.37961703 29.03986279 30.59596401 30.125 33.8125 C31.21776268 37.04672116 32.31132659 40.28066588 33.40646362 43.51408386 C34.08465323 45.51692575 34.76141507 47.52025183 35.43655396 49.52412415 C35.74382416 50.43244492 36.05109436 51.34076569 36.36767578 52.27661133 C36.76927414 53.4671386 36.76927414 53.4671386 37.1789856 54.68171692 C38.05175101 57.14612837 39.02903935 59.57259837 40 62 C40.33 41.54 40.66 21.08 41 0 C46.28 0 51.56 0 57 0 C57 34.65 57 69.3 57 105 C51.06 105 45.12 105 39 105 C34.15557593 93.89624271 30.25705402 82.50960909 26.3125 71.0625 C25.29784237 68.12700797 24.28211368 65.19189207 23.2651825 62.25718689 C22.63704461 60.44355465 22.01035335 58.62942053 21.3853302 56.81471252 C21.10130844 55.99293015 20.81728668 55.17114777 20.5246582 54.32446289 C20.27770706 53.60787003 20.03075592 52.89127716 19.77632141 52.15296936 C18.90876568 49.7469802 17.94987744 47.37469359 17 45 C16.67 64.8 16.34 84.6 16 105 C10.72 105 5.44 105 0 105 C0 70.35 0 35.7 0 0 Z " fill="#FFFFFF" transform="translate(126,1)"/>
<path d="M0 0 C36.8226817 0 36.8226817 0 44.4296875 7.05859375 C52.31280386 16.80463562 52.86810341 29.04247831 52 41 C50.49199448 49.68212 46.98260487 55.58444837 40 61 C40.39380859 62.22630127 40.78761719 63.45260254 41.19335938 64.71606445 C42.65134449 69.26008234 44.10363497 73.80590322 45.55419922 78.35229492 C46.18317614 80.32089201 46.81370266 82.28899468 47.44580078 84.2565918 C48.35335237 87.08253932 49.25534216 89.91020978 50.15625 92.73828125 C50.44060913 93.61962234 50.72496826 94.50096344 51.01794434 95.40901184 C51.27821411 96.22963608 51.53848389 97.05026031 51.80664062 97.89575195 C52.03758423 98.61745071 52.26852783 99.33914948 52.50646973 100.0827179 C53 102 53 102 53 105 C46.73 105 40.46 105 34 105 C32.026511 99.73736268 30.32309776 94.84931646 28.87890625 89.47265625 C28.49756728 88.09026764 28.11538224 86.70811219 27.73242188 85.32617188 C27.14072946 83.17971058 26.55447701 81.03233533 25.98217773 78.88061523 C25.4216237 76.78167549 24.83977878 74.68964795 24.25390625 72.59765625 C23.91689697 71.35508057 23.5798877 70.11250488 23.23266602 68.83227539 C22.82588623 67.89762451 22.41910645 66.96297363 22 66 C20.68 65.67 19.36 65.34 18 65 C18 78.2 18 91.4 18 105 C12.06 105 6.12 105 0 105 C0 70.35 0 35.7 0 0 Z M18 18 C18 28.23 18 38.46 18 49 C26.26395961 49.74718669 26.26395961 49.74718669 29.9375 47.3125 C34.5551714 42.13511086 34.36664809 36.75723738 34.25390625 30.10546875 C33.86805718 25.38623786 32.41842362 22.63664264 29.375 19.125 C26.08238899 17.35787048 26.08238899 17.35787048 18 18 Z " fill="#EFD048" transform="translate(309,1)"/>
<path d="M0 0 C36.15878378 0 36.15878378 0 43.52734375 7.08984375 C49.33795313 14.62668191 49.91834093 23.8398398 49 33 C47.80446008 40.66074125 44.12574898 44.47480301 38 49 C38.79664062 49.54527344 38.79664062 49.54527344 39.609375 50.1015625 C46.55607636 55.04538281 49.98512447 59.5889664 52 68 C52.28758072 70.79814685 52.33431376 73.56355355 52.3125 76.375 C52.30512817 77.49708862 52.30512817 77.49708862 52.29760742 78.6418457 C52.14326585 85.91964455 50.84774066 91.20199272 46.8125 97.3125 C34.22211651 109.34331089 16.41003149 105 0 105 C0 70.35 0 35.7 0 0 Z M18 16 C18 24.91 18 33.82 18 43 C26.27106565 42.82496593 26.27106565 42.82496593 29.4375 40.25 C32.81651086 35.38422436 33.72909524 30.90219957 33 25 C31.65496686 21.03962464 30.6763797 19.4509198 27.1875 17.125 C23.62037705 15.66717988 23.62037705 15.66717988 18 16 Z M18 57 C18 67.56 18 78.12 18 89 C25.8314671 89.3041942 25.8314671 89.3041942 32 86 C35.33746976 80.5487994 35.74978747 75.30226765 35 69 C33.82783519 64.53218342 31.88698497 60.59132331 28 58 C24.7 57.67 21.4 57.34 18 57 Z " fill="#FFFFFF" transform="translate(1,1)"/>
<path d="M0 0 C9.44016634 7.42177888 11.81856725 19.12804935 13.35253906 30.43701172 C13.97506591 36.55095242 14.05161763 42.62398451 14.01464844 48.76513672 C14.00391304 50.87757035 14.01462724 52.98915407 14.02734375 55.1015625 C14.04437858 70.94142615 13.25264776 88.28591453 1.75390625 100.37890625 C-3.88551447 104.54133583 -9.29879493 104.58497579 -16.05859375 104.62890625 C-16.84041016 104.64953125 -17.62222656 104.67015625 -18.42773438 104.69140625 C-25.95055029 104.74168405 -31.69096327 102.6168753 -37.24609375 97.37890625 C-47.0480194 83.80527189 -46.50909343 66.05362077 -46.55859375 50.06640625 C-46.56236023 49.39339478 -46.56612671 48.7203833 -46.57000732 48.02697754 C-46.6130913 32.82713515 -46.21645722 15.30106107 -35.96875 3.0390625 C-27.63500316 -4.99232617 -9.94908848 -5.58784422 0 0 Z M-23.12109375 16.37890625 C-32.44024881 29.53536046 -29.05393859 58.13390696 -27.24609375 73.37890625 C-26.32740835 78.05090502 -25.13945766 81.98922906 -22.55859375 86.00390625 C-19.15573856 88.02722555 -16.03045808 88.2290716 -12.24609375 87.37890625 C-8.15711839 84.53440165 -6.53812165 81.64529393 -5.58203125 76.765625 C-3.44239578 61.5642614 -3.50407142 45.77114871 -4.99609375 30.50390625 C-5.05772705 29.78565674 -5.11936035 29.06740723 -5.18286133 28.32739258 C-5.77990328 23.08173114 -7.35820517 19.68869417 -10.24609375 15.37890625 C-14.84759401 13.07815612 -19.07944781 13.56732646 -23.12109375 16.37890625 Z " fill="#FFFFFF" transform="translate(104.24609375,2.62109375)"/>
<path d="M0 0 C8.91 0 17.82 0 27 0 C29.25 9 29.25 9 29.77200317 12.64453125 C29.89255066 13.47170151 30.01309814 14.29887177 30.13729858 15.15110779 C30.26101837 16.02936722 30.38473816 16.90762665 30.51220703 17.8125 C30.64904907 18.75976456 30.78589111 19.70702911 30.92687988 20.68299866 C31.37445601 23.78811506 31.81617391 26.89403404 32.2578125 30 C32.56847518 32.16338214 32.87950558 34.3267115 33.19088745 36.48999023 C34.00665994 42.16441617 34.81745464 47.83954244 35.62719727 53.51483154 C36.45547738 59.31370631 37.28848743 65.11190135 38.12109375 70.91015625 C39.7520129 82.27278033 41.37723341 93.63620873 43 105 C36.73 105 30.46 105 24 105 C22.90450889 97.81083956 22 91.28621658 22 84 C16.39 84 10.78 84 5 84 C4.86722656 85.34835938 4.73445313 86.69671875 4.59765625 88.0859375 C4.41947651 89.84897913 4.24107986 91.61199885 4.0625 93.375 C3.97548828 94.26445313 3.88847656 95.15390625 3.79882812 96.0703125 C3.71181641 96.92109375 3.62480469 97.771875 3.53515625 98.6484375 C3.456604 99.43395996 3.37805176 100.21948242 3.29711914 101.02880859 C3 103 3 103 2 105 C-3.61 105 -9.22 105 -15 105 C-14.3154705 93.76248238 -12.75931777 82.74787345 -11.09375 71.62109375 C-10.80577462 69.67632449 -10.51814231 67.73150441 -10.23083496 65.78663635 C-9.63176571 61.73779179 -9.02972488 57.68940483 -8.42529297 53.64135742 C-7.65077689 48.45366533 -6.88204473 43.26513697 -6.11528778 38.07629299 C-5.52329385 34.07238886 -4.92917033 30.0688032 -4.33430481 26.06532478 C-4.04998236 24.15122219 -3.76611462 22.237052 -3.48271179 20.32281303 C-3.08751304 17.65687684 -2.68966382 14.99135001 -2.29101562 12.32592773 C-2.17462234 11.53786743 -2.05822906 10.74980713 -1.93830872 9.93786621 C-1.43103252 6.56344785 -0.82875242 3.31500967 0 0 Z M13 20 C11.14821758 28.13737497 10.11785816 36.35683997 9.14013672 44.63378906 C8.87300255 46.89188452 8.59904301 49.14907885 8.32421875 51.40625 C7.34929765 59.18056145 7.34929765 59.18056145 7 67 C10.96 67 14.92 67 19 67 C18.48871129 51.22674321 16.11720614 35.61936093 14 20 C13.67 20 13.34 20 13 20 Z " fill="#EFD048" transform="translate(381,1)"/>
<path d="M0 0 C6.6 0 13.2 0 20 0 C23.3 26.07 26.6 52.14 30 79 C31.91440873 77.08559127 31.61934799 73.71713575 31.92382812 71.15698242 C32.01014999 70.44149734 32.09647186 69.72601227 32.18540955 68.98884583 C32.47130241 66.61150799 32.75117745 64.23349867 33.03125 61.85546875 C33.22875812 60.2073283 33.42672132 58.55924234 33.62512207 56.91120911 C34.14785732 52.56153456 34.66584855 48.21130963 35.18243408 43.86090088 C36.00842296 36.90738585 36.83935422 29.95446904 37.67442322 23.00203896 C37.96531941 20.57163101 38.25287293 18.14084342 38.54016113 15.71000671 C38.71870406 14.2170563 38.89736786 12.72412034 39.07617188 11.23120117 C39.23081909 9.92849777 39.38546631 8.62579437 39.5447998 7.28361511 C40 4 40 4 41 0 C46.94 0 52.88 0 59 0 C58.3154705 11.23751762 56.75931777 22.25212655 55.09375 33.37890625 C54.80577462 35.32367551 54.51814231 37.26849559 54.23083496 39.21336365 C53.63176571 43.26220821 53.02972488 47.31059517 52.42529297 51.35864258 C51.65077689 56.54633467 50.88204473 61.73486303 50.11528778 66.92370701 C49.52329385 70.92761114 48.92917033 74.9311968 48.33430481 78.93467522 C48.04998236 80.84877781 47.76611462 82.762948 47.48271179 84.67718697 C47.08751304 87.34312316 46.68966382 90.00864999 46.29101562 92.67407227 C46.17462234 93.46213257 46.05822906 94.25019287 45.93830872 95.06213379 C45.43282464 98.42463088 44.86019941 101.71117675 44 105 C40.03069011 105.02465881 36.06140966 105.04284023 32.09204102 105.05493164 C30.74079614 105.05997057 29.38955674 105.06680177 28.03833008 105.07543945 C26.09979566 105.08752419 24.161222 105.09269828 22.22265625 105.09765625 C20.47094116 105.10551147 20.47094116 105.10551147 18.68383789 105.11352539 C16 105 16 105 15 104 C14.45473452 100.8895705 13.96559033 97.78652052 13.50952148 94.66259766 C13.3630719 93.68215988 13.21662231 92.70172211 13.06573486 91.6915741 C12.58010215 88.43299624 12.10050285 85.17356135 11.62109375 81.9140625 C11.28651999 79.65818902 10.95164175 77.40236068 10.61647034 75.14657593 C9.91368462 70.4105957 9.21371847 65.67421008 8.51586914 60.9375 C7.62008465 54.85797511 6.71874015 48.77929134 5.81545925 42.70087624 C5.12314821 38.0395353 4.43309089 33.37786306 3.74379158 28.7160759 C3.4121963 26.47444109 3.08005761 24.2328866 2.74737358 21.99141312 C2.28308849 18.85999078 1.82166714 15.72816009 1.36108398 12.59619141 C1.22239395 11.66412369 1.08370392 10.73205597 0.94081116 9.77174377 C0.81604401 8.91923538 0.69127686 8.06672699 0.56272888 7.18838501 C0.45341254 6.44764048 0.3440962 5.70689594 0.23146725 4.94370461 C0 3 0 3 0 0 Z " fill="#EFD048" transform="translate(422,1)"/>
<path d="M0 0 C15.51 0 31.02 0 47 0 C47 5.94 47 11.88 47 18 C37.43 18 27.86 18 18 18 C18 25.92 18 33.84 18 42 C25.26 42 32.52 42 40 42 C40 47.61 40 53.22 40 59 C32.74 59 25.48 59 18 59 C18 68.24 18 77.48 18 87 C27.57 87 37.14 87 47 87 C47 92.94 47 98.88 47 105 C31.49 105 15.98 105 0 105 C0 70.35 0 35.7 0 0 Z " fill="#EFD048" transform="translate(488,1)"/>
<path d="M0 0 C15.18 0 30.36 0 46 0 C46 5.94 46 11.88 46 18 C36.43 18 26.86 18 17 18 C17 25.92 17 33.84 17 42 C24.59 42 32.18 42 40 42 C40 47.61 40 53.22 40 59 C32.41 59 24.82 59 17 59 C17 68.24 17 77.48 17 87 C26.9 87 36.8 87 47 87 C47 92.94 47 98.88 47 105 C31.49 105 15.98 105 0 105 C0 70.35 0 35.7 0 0 Z " fill="#FFFFFF" transform="translate(194,1)"/>
<path d="M0 0 C17.16 0 34.32 0 52 0 C52 5.94 52 11.88 52 18 C46.39 18 40.78 18 35 18 C35 46.71 35 75.42 35 105 C29.06 105 23.12 105 17 105 C17 76.29 17 47.58 17 18 C11.39 18 5.78 18 0 18 C0 12.06 0 6.12 0 0 Z " fill="#EFD048" transform="translate(250,1)"/>
<path d="M0 0 C5.61 0 11.22 0 17 0 C17 28.71 17 57.42 17 87 C26.24 87 35.48 87 45 87 C45 92.94 45 98.88 45 105 C30.15 105 15.3 105 0 105 C0 70.35 0 35.7 0 0 Z " fill="#EFD048" transform="translate(544,1)"/>
</svg>
